# Blender v2.82 (sub 7) OBJ File: ''
# www.blender.org
o stefan_part1
v -208.825790 -192.611099 -5.003126
v -207.706146 -192.673981 4.996874
v -208.825790 -192.611099 4.996874
v -207.706146 -192.673981 -5.003126
v -209.931351 -192.423264 -5.003126
v -209.931351 -192.423264 4.996874
v -211.008942 -192.112808 -5.003126
v -211.008942 -192.112808 4.996874
v -212.044983 -191.683670 -5.003111
v -212.044983 -191.683670 4.996889
v -213.026474 -191.141220 -5.003111
v -213.026474 -191.141220 4.996889
v -213.941040 -190.492294 -5.002971
v -213.941040 -190.492294 4.997029
v -214.777222 -189.745056 -5.002971
v -214.777222 -189.745056 4.997029
v -215.524460 -188.908875 -5.002971
v -215.524460 -188.908875 4.997029
v -216.173386 -187.994308 -5.002961
v -216.173386 -187.994308 4.997039
v -216.715836 -187.012817 -5.002961
v -216.715836 -187.012817 4.997039
v -217.144989 -185.976776 -5.002961
v -217.144989 -185.976776 4.997039
v -217.455429 -184.899185 -5.002961
v -217.455429 -184.899185 4.997039
v -217.643265 -183.793625 -5.002961
v -217.643265 -183.793625 4.997039
v -217.706146 -182.673981 -5.002941
v -217.706146 -182.673981 4.997059
v 208.825790 -192.611099 4.996874
v 207.706146 -192.673981 -5.003126
v 208.825790 -192.611099 -5.003126
v 207.706146 -192.673981 4.996874
v 209.931351 -192.423264 4.996874
v 209.931351 -192.423264 -5.003126
v 211.008942 -192.112808 4.996874
v 211.008942 -192.112808 -5.003126
v 212.044983 -191.683670 4.996889
v 212.044983 -191.683670 -5.003111
v 213.026474 -191.141220 4.996889
v 213.026474 -191.141220 -5.003111
v 213.941040 -190.492294 4.997029
v 213.941040 -190.492294 -5.002971
v 214.777222 -189.745056 4.997029
v 214.777222 -189.745056 -5.002971
v 215.524460 -188.908875 4.997029
v 215.524460 -188.908875 -5.002971
v 216.173386 -187.994308 4.997039
v 216.173386 -187.994308 -5.002961
v 216.715836 -187.012817 4.997039
v 216.715836 -187.012817 -5.002961
v 217.144989 -185.976776 4.997039
v 217.144989 -185.976776 -5.002961
v 217.455429 -184.899185 4.997039
v 217.455429 -184.899185 -5.002961
v 217.643265 -183.793625 4.997039
v 217.643265 -183.793625 -5.002961
v 217.706146 -182.673981 4.997059
v 217.706146 -182.673981 -5.002941
v 134.000000 217.326019 -4.996498
v -134.000000 217.326019 -4.996498
v 134.000000 217.326019 5.003502
v -134.000000 217.326019 5.003502
v -134.000000 182.326019 -4.997042
v -134.000000 182.326019 5.002958
v -171.000000 182.326019 -4.997042
v -171.000000 182.326019 5.002958
v -217.624985 -181.402527 -5.002941
v -217.624985 -181.402527 4.997059
v 217.624985 -181.402527 4.997059
v 171.000000 182.326019 5.002958
v 134.000000 182.326019 5.002958
v -217.670044 -181.825058 4.997059
v -217.697113 -182.249146 4.997059
v 217.697113 -182.249146 4.997059
v 217.670044 -181.825058 4.997059
v -217.697113 -182.249146 -5.002941
v -217.670044 -181.825058 -5.002941
v 134.000000 182.326019 -4.997042
v 171.000000 182.326019 -4.997042
v 217.624985 -181.402527 -5.002941
v 217.670044 -181.825058 -5.002941
v 217.697113 -182.249146 -5.002941
vn -0.0561 -0.9984 0.0000
vn -0.1675 -0.9859 0.0000
vn -0.2768 -0.9609 0.0000
vn -0.2769 -0.9609 0.0000
vn -0.3827 -0.9239 0.0000
vn -0.4837 -0.8752 0.0000
vn -0.5787 -0.8156 0.0000
vn -0.6663 -0.7457 0.0000
vn -0.7456 -0.6663 0.0000
vn -0.7457 -0.6663 0.0000
vn -0.7456 -0.6664 0.0000
vn -0.8156 -0.5787 0.0000
vn -0.8752 -0.4837 0.0000
vn -0.9239 -0.3827 0.0000
vn -0.9609 -0.2768 0.0000
vn -0.9859 -0.1675 0.0000
vn -0.9984 -0.0561 0.0000
vn 0.0561 -0.9984 0.0000
vn 0.1675 -0.9859 0.0000
vn 0.2768 -0.9609 0.0000
vn 0.2769 -0.9609 0.0000
vn 0.3827 -0.9239 0.0000
vn 0.4837 -0.8752 0.0000
vn 0.5787 -0.8156 0.0000
vn 0.5787 -0.8155 0.0000
vn 0.6663 -0.7457 0.0000
vn 0.7456 -0.6663 0.0000
vn 0.7457 -0.6663 0.0000
vn 0.7456 -0.6664 0.0000
vn 0.8156 -0.5786 0.0000
vn 0.8155 -0.5787 0.0000
vn 0.8752 -0.4837 0.0000
vn 0.9239 -0.3827 0.0000
vn 0.9609 -0.2768 0.0000
vn 0.9859 -0.1675 0.0000
vn 0.9984 -0.0561 0.0000
vn 0.0000 -1.0000 0.0000
vn 0.0000 1.0000 0.0000
vn -1.0000 0.0000 0.0000
vn -0.9919 0.1271 0.0000
vn -0.0000 -0.0000 1.0000
vn 0.0002 0.0001 1.0000
vn -0.0002 0.0001 1.0000
vn -0.0001 -0.0000 1.0000
vn 0.0032 -0.0000 1.0000
vn 0.0001 -0.0000 1.0000
vn -0.0000 0.0000 -1.0000
vn -0.0002 -0.0001 -1.0000
vn -0.0001 0.0000 -1.0000
vn 0.0001 0.0000 -1.0000
vn 0.0002 -0.0001 -1.0000
vn 0.9919 0.1271 0.0000
vn 1.0000 -0.0000 0.0000
vn 0.9998 0.0213 0.0000
vn 0.9980 0.0638 0.0000
vn 0.9980 0.0637 0.0000
vn 0.9944 0.1061 0.0000
vn -0.9998 0.0213 0.0000
vn -0.9980 0.0638 0.0000
vn -0.9980 0.0637 0.0000
vn -0.9944 0.1061 0.0000
s 1
f 1//1 2//1 3//1
f 1//1 4//1 2//1
f 5//2 3//2 6//2
f 5//2 1//2 3//2
f 7//3 6//4 8//4
f 7//3 5//3 6//4
f 9//5 8//5 10//5
f 9//5 7//5 8//5
f 11//6 10//6 12//6
f 11//6 9//6 10//6
f 13//7 12//7 14//7
f 13//7 11//7 12//7
f 15//8 14//8 16//8
f 15//8 13//8 14//8
f 17//9 16//10 18//10
f 17//9 15//11 16//10
f 19//12 18//12 20//12
f 19//12 17//12 18//12
f 21//13 20//13 22//13
f 21//13 19//13 20//13
f 23//14 22//14 24//14
f 23//14 21//14 22//14
f 25//15 24//15 26//15
f 25//15 23//15 24//15
f 27//16 26//16 28//16
f 27//16 25//16 26//16
f 29//17 28//17 30//17
f 29//17 27//17 28//17
f 31//18 32//18 33//18
f 31//18 34//18 32//18
f 35//19 33//19 36//19
f 35//19 31//19 33//19
f 37//20 36//21 38//21
f 37//20 35//20 36//21
f 39//22 38//22 40//22
f 39//22 37//22 38//22
f 41//23 40//23 42//23
f 41//23 39//23 40//23
f 43//24 42//25 44//25
f 43//24 41//24 42//25
f 45//26 44//26 46//26
f 45//26 43//26 44//26
f 47//27 46//28 48//28
f 47//27 45//29 46//28
f 49//30 48//31 50//31
f 49//30 47//30 48//31
f 51//32 50//32 52//32
f 51//32 49//32 50//32
f 53//33 52//33 54//33
f 53//33 51//33 52//33
f 55//34 54//34 56//34
f 55//34 53//34 54//34
f 57//35 56//35 58//35
f 57//35 55//35 56//35
f 59//36 58//36 60//36
f 59//36 57//36 58//36
f 4//37 32//37 2//37
f 32//37 34//37 2//37
f 61//38 62//38 63//38
f 62//38 64//38 63//38
f 62//39 65//39 64//39
f 65//39 66//39 64//39
f 65//38 67//38 66//38
f 67//38 68//38 66//38
f 67//40 69//40 68//40
f 69//40 70//40 68//40
f 26//41 24//41 70//41
f 24//41 22//41 70//41
f 22//41 20//41 70//41
f 20//41 18//41 70//41
f 18//41 16//41 70//41
f 16//41 14//42 70//41
f 14//42 12//41 70//41
f 12//41 10//41 70//41
f 10//41 8//41 70//41
f 8//41 6//41 70//41
f 6//41 3//41 70//41
f 3//41 2//41 70//41
f 71//41 72//41 73//41
f 34//41 71//41 73//41
f 2//41 34//41 66//41
f 70//41 2//41 66//41
f 34//41 73//41 66//41
f 73//41 63//41 64//41
f 66//41 73//41 64//41
f 70//41 66//41 68//41
f 34//41 31//41 71//41
f 31//41 35//41 71//41
f 35//41 37//41 71//41
f 37//41 39//41 71//41
f 39//41 41//41 71//41
f 41//41 43//43 71//41
f 43//43 45//41 71//41
f 45//41 47//41 71//41
f 47//41 49//41 71//41
f 49//41 51//41 71//41
f 51//41 53//41 71//41
f 53//41 55//41 71//41
f 55//41 57//41 71//41
f 57//41 59//44 71//41
f 74//45 75//41 70//41
f 59//44 76//41 71//41
f 75//41 30//46 70//41
f 76//41 77//41 71//41
f 30//46 28//41 70//41
f 28//41 26//41 70//41
f 69//47 9//47 11//47
f 69//47 11//47 13//48
f 69//47 13//48 15//47
f 69//47 15//47 17//47
f 69//47 17//47 19//47
f 69//47 19//47 21//47
f 69//47 21//47 23//47
f 69//47 23//47 25//47
f 69//47 25//47 27//47
f 69//47 27//47 29//49
f 69//47 29//49 78//47
f 69//47 78//47 79//47
f 80//47 81//47 82//47
f 80//47 82//47 32//47
f 65//47 4//47 69//47
f 65//47 32//47 4//47
f 65//47 80//47 32//47
f 62//47 80//47 65//47
f 62//47 61//47 80//47
f 67//47 65//47 69//47
f 82//47 83//47 84//47
f 82//47 84//47 60//50
f 82//47 60//50 58//47
f 82//47 58//47 56//47
f 82//47 56//47 54//47
f 82//47 54//47 52//47
f 82//47 52//47 50//47
f 82//47 50//47 48//47
f 82//47 48//47 46//47
f 82//47 46//47 44//51
f 82//47 44//51 42//47
f 82//47 42//47 40//47
f 82//47 40//47 38//47
f 82//47 38//47 36//47
f 69//47 4//47 1//47
f 82//47 36//47 33//47
f 69//47 1//47 5//47
f 82//47 33//47 32//47
f 69//47 5//47 7//47
f 69//47 7//47 9//47
f 72//52 71//52 82//52
f 72//52 82//52 81//52
f 73//38 81//38 80//38
f 73//38 72//38 81//38
f 63//53 80//53 61//53
f 63//53 73//53 80//53
f 76//54 59//54 60//54
f 76//54 60//54 84//54
f 77//55 84//56 83//56
f 77//55 76//55 84//56
f 71//57 83//57 82//57
f 71//57 77//57 83//57
f 78//58 29//58 30//58
f 78//58 30//58 75//58
f 79//59 75//60 74//60
f 79//59 78//59 75//60
f 69//61 74//61 70//61
f 69//61 79//61 74//61
