# Blender v2.82 (sub 7) OBJ File: ''
# www.blender.org
o stefan_part1
v -208.825790 -192.611099 -5.002031
v -207.706146 -192.673981 4.997969
v -208.825790 -192.611099 4.997969
v -207.706146 -192.673981 -5.002031
v -209.931351 -192.423264 -5.002031
v -209.931351 -192.423264 4.997969
v -211.008942 -192.112808 -5.002031
v -211.008942 -192.112808 4.997969
v -212.044983 -191.683670 -5.002021
v -212.044983 -191.683670 4.997979
v -213.026474 -191.141220 -5.002021
v -213.026474 -191.141220 4.997979
v -213.941040 -190.492294 -5.001939
v -213.941040 -190.492294 4.998061
v -214.777222 -189.745056 -5.001939
v -214.777222 -189.745056 4.998061
v -215.524460 -188.908875 -5.001939
v -215.524460 -188.908875 4.998061
v -216.173386 -187.994308 -5.001928
v -216.173386 -187.994308 4.998072
v -216.715836 -187.012817 -5.001928
v -216.715836 -187.012817 4.998072
v -217.144989 -185.976776 -5.001928
v -217.144989 -185.976776 4.998072
v -217.455429 -184.899185 -5.001928
v -217.455429 -184.899185 4.998072
v -217.643265 -183.793625 -5.001928
v -217.643265 -183.793625 4.998072
v -217.706146 -182.673981 -5.001911
v -217.706146 -182.673981 4.998089
v 208.825790 -192.611099 4.997969
v 207.706146 -192.673981 -5.002031
v 208.825790 -192.611099 -5.002031
v 207.706146 -192.673981 4.997969
v 209.931351 -192.423264 4.997969
v 209.931351 -192.423264 -5.002031
v 211.008942 -192.112808 4.997969
v 211.008942 -192.112808 -5.002031
v 212.044983 -191.683670 4.997979
v 212.044983 -191.683670 -5.002021
v 213.026474 -191.141220 4.997979
v 213.026474 -191.141220 -5.002021
v 213.941040 -190.492294 4.998061
v 213.941040 -190.492294 -5.001939
v 214.777222 -189.745056 4.998061
v 214.777222 -189.745056 -5.001939
v 215.524460 -188.908875 4.998061
v 215.524460 -188.908875 -5.001939
v 216.173386 -187.994308 4.998072
v 216.173386 -187.994308 -5.001928
v 216.715836 -187.012817 4.998072
v 216.715836 -187.012817 -5.001928
v 217.144989 -185.976776 4.998072
v 217.144989 -185.976776 -5.001928
v 217.455429 -184.899185 4.998072
v 217.455429 -184.899185 -5.001928
v 217.643265 -183.793625 4.998072
v 217.643265 -183.793625 -5.001928
v 217.706146 -182.673981 4.998089
v 217.706146 -182.673981 -5.001911
v 134.000000 217.326019 -4.997720
v -134.000000 217.326019 -4.997720
v 134.000000 217.326019 5.002280
v -134.000000 217.326019 5.002280
v -134.000000 182.326019 -4.998076
v -134.000000 182.326019 5.001924
v -171.000000 182.326019 -4.998076
v -171.000000 182.326019 5.001924
v -217.624985 -181.402527 -5.001911
v -217.624985 -181.402527 4.998089
v 217.624985 -181.402527 4.998089
v 171.000000 182.326019 5.001924
v 134.000000 182.326019 5.001924
v -217.670044 -181.825058 4.998089
v -217.697113 -182.249146 4.998089
v 217.697113 -182.249146 4.998089
v 217.670044 -181.825058 4.998089
v -217.697113 -182.249146 -5.001911
v -217.670044 -181.825058 -5.001911
v 134.000000 182.326019 -4.998076
v 171.000000 182.326019 -4.998076
v 217.624985 -181.402527 -5.001911
v 217.670044 -181.825058 -5.001911
v 217.697113 -182.249146 -5.001911
vn -0.0561 -0.9984 0.0000
vn -0.1675 -0.9859 0.0000
vn -0.2768 -0.9609 0.0000
vn -0.2769 -0.9609 0.0000
vn -0.3827 -0.9239 0.0000
vn -0.4837 -0.8752 0.0000
vn -0.5787 -0.8156 0.0000
vn -0.6663 -0.7457 0.0000
vn -0.7456 -0.6663 0.0000
vn -0.7457 -0.6663 0.0000
vn -0.7456 -0.6664 0.0000
vn -0.8156 -0.5787 0.0000
vn -0.8752 -0.4837 0.0000
vn -0.9239 -0.3827 0.0000
vn -0.9609 -0.2768 0.0000
vn -0.9859 -0.1675 0.0000
vn -0.9984 -0.0561 0.0000
vn 0.0561 -0.9984 0.0000
vn 0.1675 -0.9859 0.0000
vn 0.2768 -0.9609 0.0000
vn 0.2769 -0.9609 0.0000
vn 0.3827 -0.9239 0.0000
vn 0.4837 -0.8752 0.0000
vn 0.5787 -0.8156 0.0000
vn 0.6663 -0.7457 0.0000
vn 0.7456 -0.6663 0.0000
vn 0.7457 -0.6663 0.0000
vn 0.7456 -0.6664 0.0000
vn 0.8156 -0.5787 0.0000
vn 0.8752 -0.4837 0.0000
vn 0.9239 -0.3827 0.0000
vn 0.9609 -0.2768 0.0000
vn 0.9859 -0.1675 0.0000
vn 0.9984 -0.0561 0.0000
vn 0.0000 -1.0000 0.0000
vn 0.0000 1.0000 0.0000
vn -1.0000 0.0000 0.0000
vn -0.9919 0.1271 0.0000
vn -0.0000 -0.0000 1.0000
vn 0.0001 0.0000 1.0000
vn -0.0001 0.0000 1.0000
vn 0.0021 -0.0000 1.0000
vn -0.0000 0.0000 -1.0000
vn -0.0001 -0.0000 -1.0000
vn 0.0001 0.0000 -1.0000
vn 0.9919 0.1271 0.0000
vn 1.0000 0.0000 0.0000
vn 0.9998 0.0213 0.0000
vn 0.9980 0.0638 0.0000
vn 0.9980 0.0637 0.0000
vn 0.9944 0.1061 0.0000
vn -0.9998 0.0213 0.0000
vn -0.9980 0.0638 0.0000
vn -0.9980 0.0637 0.0000
vn -0.9944 0.1061 0.0000
s 1
f 1//1 2//1 3//1
f 1//1 4//1 2//1
f 5//2 3//2 6//2
f 5//2 1//2 3//2
f 7//3 6//4 8//4
f 7//3 5//3 6//4
f 9//5 8//5 10//5
f 9//5 7//5 8//5
f 11//6 10//6 12//6
f 11//6 9//6 10//6
f 13//7 12//7 14//7
f 13//7 11//7 12//7
f 15//8 14//8 16//8
f 15//8 13//8 14//8
f 17//9 16//10 18//10
f 17//9 15//11 16//10
f 19//12 18//12 20//12
f 19//12 17//12 18//12
f 21//13 20//13 22//13
f 21//13 19//13 20//13
f 23//14 22//14 24//14
f 23//14 21//14 22//14
f 25//15 24//15 26//15
f 25//15 23//15 24//15
f 27//16 26//16 28//16
f 27//16 25//16 26//16
f 29//17 28//17 30//17
f 29//17 27//17 28//17
f 31//18 32//18 33//18
f 31//18 34//18 32//18
f 35//19 33//19 36//19
f 35//19 31//19 33//19
f 37//20 36//21 38//21
f 37//20 35//20 36//21
f 39//22 38//22 40//22
f 39//22 37//22 38//22
f 41//23 40//23 42//23
f 41//23 39//23 40//23
f 43//24 42//24 44//24
f 43//24 41//24 42//24
f 45//25 44//25 46//25
f 45//25 43//25 44//25
f 47//26 46//27 48//27
f 47//26 45//28 46//27
f 49//29 48//29 50//29
f 49//29 47//29 48//29
f 51//30 50//30 52//30
f 51//30 49//30 50//30
f 53//31 52//31 54//31
f 53//31 51//31 52//31
f 55//32 54//32 56//32
f 55//32 53//32 54//32
f 57//33 56//33 58//33
f 57//33 55//33 56//33
f 59//34 58//34 60//34
f 59//34 57//34 58//34
f 4//35 32//35 2//35
f 32//35 34//35 2//35
f 61//36 62//36 63//36
f 62//36 64//36 63//36
f 62//37 65//37 64//37
f 65//37 66//37 64//37
f 65//36 67//36 66//36
f 67//36 68//36 66//36
f 67//38 69//38 68//38
f 69//38 70//38 68//38
f 26//39 24//39 70//39
f 24//39 22//39 70//39
f 22//39 20//39 70//39
f 20//39 18//39 70//39
f 18//39 16//39 70//39
f 16//39 14//40 70//39
f 14//40 12//39 70//39
f 12//39 10//39 70//39
f 10//39 8//39 70//39
f 8//39 6//39 70//39
f 6//39 3//39 70//39
f 3//39 2//39 70//39
f 71//39 72//39 73//39
f 34//39 71//39 73//39
f 2//39 34//39 66//39
f 70//39 2//39 66//39
f 34//39 73//39 66//39
f 73//39 63//39 64//39
f 66//39 73//39 64//39
f 70//39 66//39 68//39
f 34//39 31//39 71//39
f 31//39 35//39 71//39
f 35//39 37//39 71//39
f 37//39 39//39 71//39
f 39//39 41//39 71//39
f 41//39 43//41 71//39
f 43//41 45//39 71//39
f 45//39 47//39 71//39
f 47//39 49//39 71//39
f 49//39 51//39 71//39
f 51//39 53//39 71//39
f 53//39 55//39 71//39
f 55//39 57//39 71//39
f 57//39 59//41 71//39
f 74//42 75//39 70//39
f 59//41 76//39 71//39
f 75//39 30//40 70//39
f 76//39 77//40 71//39
f 30//40 28//39 70//39
f 28//39 26//39 70//39
f 69//43 9//43 11//43
f 69//43 11//43 13//44
f 69//43 13//44 15//43
f 69//43 15//43 17//43
f 69//43 17//43 19//43
f 69//43 19//43 21//43
f 69//43 21//43 23//43
f 69//43 23//43 25//43
f 69//43 25//43 27//43
f 69//43 27//43 29//44
f 69//43 29//44 78//43
f 69//43 78//43 79//45
f 80//43 81//43 82//43
f 80//43 82//43 32//43
f 65//43 4//43 69//43
f 65//43 32//43 4//43
f 65//43 80//43 32//43
f 62//43 80//43 65//43
f 62//43 61//43 80//43
f 67//43 65//43 69//43
f 82//43 83//44 84//43
f 82//43 84//43 60//45
f 82//43 60//45 58//43
f 82//43 58//43 56//43
f 82//43 56//43 54//43
f 82//43 54//43 52//43
f 82//43 52//43 50//43
f 82//43 50//43 48//43
f 82//43 48//43 46//43
f 82//43 46//43 44//45
f 82//43 44//45 42//43
f 82//43 42//43 40//43
f 82//43 40//43 38//43
f 82//43 38//43 36//43
f 69//43 4//43 1//43
f 82//43 36//43 33//43
f 69//43 1//43 5//43
f 82//43 33//43 32//43
f 69//43 5//43 7//43
f 69//43 7//43 9//43
f 72//46 71//46 82//46
f 72//46 82//46 81//46
f 73//36 81//36 80//36
f 73//36 72//36 81//36
f 63//47 80//47 61//47
f 63//47 73//47 80//47
f 76//48 59//48 60//48
f 76//48 60//48 84//48
f 77//49 84//50 83//50
f 77//49 76//49 84//50
f 71//51 83//51 82//51
f 71//51 77//51 83//51
f 78//52 29//52 30//52
f 78//52 30//52 75//52
f 79//53 75//54 74//54
f 79//53 78//53 75//54
f 69//55 74//55 70//55
f 69//55 79//55 74//55
