# Blender v2.82 (sub 7) OBJ File: ''
# www.blender.org
o stefan_part1
v -208.825790 -192.611099 -5.001851
v -207.706146 -192.673981 4.998149
v -208.825790 -192.611099 4.998149
v -207.706146 -192.673981 -5.001851
v -209.931351 -192.423264 -5.001851
v -209.931351 -192.423264 4.998149
v -211.008942 -192.112808 -5.001851
v -211.008942 -192.112808 4.998149
v -212.044983 -191.683670 -5.001841
v -212.044983 -191.683670 4.998159
v -213.026474 -191.141220 -5.001841
v -213.026474 -191.141220 4.998159
v -213.941040 -190.492294 -5.001769
v -213.941040 -190.492294 4.998231
v -214.777222 -189.745056 -5.001769
v -214.777222 -189.745056 4.998231
v -215.524460 -188.908875 -5.001769
v -215.524460 -188.908875 4.998231
v -216.173386 -187.994308 -5.001758
v -216.173386 -187.994308 4.998242
v -216.715836 -187.012817 -5.001758
v -216.715836 -187.012817 4.998242
v -217.144989 -185.976776 -5.001758
v -217.144989 -185.976776 4.998242
v -217.455429 -184.899185 -5.001758
v -217.455429 -184.899185 4.998242
v -217.643265 -183.793625 -5.001758
v -217.643265 -183.793625 4.998242
v -217.706146 -182.673981 -5.001742
v -217.706146 -182.673981 4.998258
v 208.825790 -192.611099 4.998149
v 207.706146 -192.673981 -5.001851
v 208.825790 -192.611099 -5.001851
v 207.706146 -192.673981 4.998149
v 209.931351 -192.423264 4.998149
v 209.931351 -192.423264 -5.001851
v 211.008942 -192.112808 4.998149
v 211.008942 -192.112808 -5.001851
v 212.044983 -191.683670 4.998159
v 212.044983 -191.683670 -5.001841
v 213.026474 -191.141220 4.998159
v 213.026474 -191.141220 -5.001841
v 213.941040 -190.492294 4.998231
v 213.941040 -190.492294 -5.001769
v 214.777222 -189.745056 4.998231
v 214.777222 -189.745056 -5.001769
v 215.524460 -188.908875 4.998231
v 215.524460 -188.908875 -5.001769
v 216.173386 -187.994308 4.998242
v 216.173386 -187.994308 -5.001758
v 216.715836 -187.012817 4.998242
v 216.715836 -187.012817 -5.001758
v 217.144989 -185.976776 4.998242
v 217.144989 -185.976776 -5.001758
v 217.455429 -184.899185 4.998242
v 217.455429 -184.899185 -5.001758
v 217.643265 -183.793625 4.998242
v 217.643265 -183.793625 -5.001758
v 217.706146 -182.673981 4.998258
v 217.706146 -182.673981 -5.001742
v 134.000000 217.326019 -4.997925
v -134.000000 217.326019 -4.997925
v 134.000000 217.326019 5.002075
v -134.000000 217.326019 5.002075
v -134.000000 182.326019 -4.998247
v -134.000000 182.326019 5.001753
v -171.000000 182.326019 -4.998247
v -171.000000 182.326019 5.001753
v -217.624985 -181.402527 -5.001742
v -217.624985 -181.402527 4.998258
v 217.624985 -181.402527 4.998258
v 171.000000 182.326019 5.001753
v 134.000000 182.326019 5.001753
v -217.670044 -181.825058 4.998258
v -217.697113 -182.249146 4.998258
v 217.697113 -182.249146 4.998258
v 217.670044 -181.825058 4.998258
v -217.697113 -182.249146 -5.001742
v -217.670044 -181.825058 -5.001742
v 134.000000 182.326019 -4.998247
v 171.000000 182.326019 -4.998247
v 217.624985 -181.402527 -5.001742
v 217.670044 -181.825058 -5.001742
v 217.697113 -182.249146 -5.001742
vn -0.0561 -0.9984 0.0000
vn -0.1675 -0.9859 0.0000
vn -0.2768 -0.9609 0.0000
vn -0.2769 -0.9609 0.0000
vn -0.3827 -0.9239 0.0000
vn -0.4837 -0.8752 0.0000
vn -0.5787 -0.8156 0.0000
vn -0.5787 -0.8155 0.0000
vn -0.6663 -0.7457 0.0000
vn -0.7456 -0.6663 0.0000
vn -0.7457 -0.6663 0.0000
vn -0.7456 -0.6664 0.0000
vn -0.8156 -0.5787 0.0000
vn -0.8752 -0.4837 0.0000
vn -0.9239 -0.3827 0.0000
vn -0.9609 -0.2768 0.0000
vn -0.9859 -0.1675 0.0000
vn -0.9984 -0.0561 0.0000
vn 0.0561 -0.9984 0.0000
vn 0.1675 -0.9859 0.0000
vn 0.2768 -0.9609 0.0000
vn 0.2769 -0.9609 0.0000
vn 0.3827 -0.9239 0.0000
vn 0.4837 -0.8752 0.0000
vn 0.5787 -0.8156 0.0000
vn 0.6663 -0.7457 0.0000
vn 0.7456 -0.6663 0.0000
vn 0.7457 -0.6663 0.0000
vn 0.7456 -0.6664 0.0000
vn 0.8156 -0.5787 0.0000
vn 0.8752 -0.4837 0.0000
vn 0.9239 -0.3827 0.0000
vn 0.9609 -0.2768 0.0000
vn 0.9859 -0.1675 0.0000
vn 0.9984 -0.0561 0.0000
vn 0.0000 -1.0000 0.0000
vn 0.0000 1.0000 0.0000
vn -1.0000 0.0000 0.0000
vn -0.9919 0.1271 0.0000
vn -0.0000 -0.0000 1.0000
vn 0.0001 0.0000 1.0000
vn -0.0001 0.0000 1.0000
vn 0.0018 -0.0000 1.0000
vn -0.0000 0.0000 -1.0000
vn -0.0001 -0.0000 -1.0000
vn 0.0001 0.0000 -1.0000
vn 0.9919 0.1271 0.0000
vn 1.0000 0.0000 0.0000
vn 0.9998 0.0213 0.0000
vn 0.9980 0.0638 0.0000
vn 0.9980 0.0637 0.0000
vn 0.9944 0.1061 0.0000
vn -0.9998 0.0213 0.0000
vn -0.9980 0.0638 0.0000
vn -0.9980 0.0637 0.0000
vn -0.9944 0.1061 0.0000
s 1
f 1//1 2//1 3//1
f 1//1 4//1 2//1
f 5//2 3//2 6//2
f 5//2 1//2 3//2
f 7//3 6//4 8//4
f 7//3 5//3 6//4
f 9//5 8//5 10//5
f 9//5 7//5 8//5
f 11//6 10//6 12//6
f 11//6 9//6 10//6
f 13//7 12//8 14//8
f 13//7 11//7 12//8
f 15//9 14//9 16//9
f 15//9 13//9 14//9
f 17//10 16//11 18//11
f 17//10 15//12 16//11
f 19//13 18//13 20//13
f 19//13 17//13 18//13
f 21//14 20//14 22//14
f 21//14 19//14 20//14
f 23//15 22//15 24//15
f 23//15 21//15 22//15
f 25//16 24//16 26//16
f 25//16 23//16 24//16
f 27//17 26//17 28//17
f 27//17 25//17 26//17
f 29//18 28//18 30//18
f 29//18 27//18 28//18
f 31//19 32//19 33//19
f 31//19 34//19 32//19
f 35//20 33//20 36//20
f 35//20 31//20 33//20
f 37//21 36//22 38//22
f 37//21 35//21 36//22
f 39//23 38//23 40//23
f 39//23 37//23 38//23
f 41//24 40//24 42//24
f 41//24 39//24 40//24
f 43//25 42//25 44//25
f 43//25 41//25 42//25
f 45//26 44//26 46//26
f 45//26 43//26 44//26
f 47//27 46//28 48//28
f 47//27 45//29 46//28
f 49//30 48//30 50//30
f 49//30 47//30 48//30
f 51//31 50//31 52//31
f 51//31 49//31 50//31
f 53//32 52//32 54//32
f 53//32 51//32 52//32
f 55//33 54//33 56//33
f 55//33 53//33 54//33
f 57//34 56//34 58//34
f 57//34 55//34 56//34
f 59//35 58//35 60//35
f 59//35 57//35 58//35
f 4//36 32//36 2//36
f 32//36 34//36 2//36
f 61//37 62//37 63//37
f 62//37 64//37 63//37
f 62//38 65//38 64//38
f 65//38 66//38 64//38
f 65//37 67//37 66//37
f 67//37 68//37 66//37
f 67//39 69//39 68//39
f 69//39 70//39 68//39
f 26//40 24//40 70//40
f 24//40 22//40 70//40
f 22//40 20//40 70//40
f 20//40 18//40 70//40
f 18//40 16//40 70//40
f 16//40 14//41 70//40
f 14//41 12//40 70//40
f 12//40 10//40 70//40
f 10//40 8//40 70//40
f 8//40 6//40 70//40
f 6//40 3//40 70//40
f 3//40 2//40 70//40
f 71//40 72//40 73//40
f 34//40 71//40 73//40
f 2//40 34//40 66//40
f 70//40 2//40 66//40
f 34//40 73//40 66//40
f 73//40 63//40 64//40
f 66//40 73//40 64//40
f 70//40 66//40 68//40
f 34//40 31//40 71//40
f 31//40 35//40 71//40
f 35//40 37//40 71//40
f 37//40 39//40 71//40
f 39//40 41//40 71//40
f 41//40 43//42 71//40
f 43//42 45//40 71//40
f 45//40 47//40 71//40
f 47//40 49//40 71//40
f 49//40 51//40 71//40
f 51//40 53//40 71//40
f 53//40 55//40 71//40
f 55//40 57//40 71//40
f 57//40 59//42 71//40
f 74//43 75//40 70//40
f 59//42 76//40 71//40
f 75//40 30//41 70//40
f 76//40 77//42 71//40
f 30//41 28//40 70//40
f 28//40 26//40 70//40
f 69//44 9//44 11//44
f 69//44 11//44 13//45
f 69//44 13//45 15//44
f 69//44 15//44 17//44
f 69//44 17//44 19//44
f 69//44 19//44 21//44
f 69//44 21//44 23//44
f 69//44 23//44 25//44
f 69//44 25//44 27//44
f 69//44 27//44 29//45
f 69//44 29//45 78//44
f 69//44 78//44 79//45
f 80//44 81//44 82//44
f 80//44 82//44 32//44
f 65//44 4//44 69//44
f 65//44 32//44 4//44
f 65//44 80//44 32//44
f 62//44 80//44 65//44
f 62//44 61//44 80//44
f 67//44 65//44 69//44
f 82//44 83//46 84//44
f 82//44 84//44 60//46
f 82//44 60//46 58//44
f 82//44 58//44 56//44
f 82//44 56//44 54//44
f 82//44 54//44 52//44
f 82//44 52//44 50//44
f 82//44 50//44 48//44
f 82//44 48//44 46//44
f 82//44 46//44 44//46
f 82//44 44//46 42//44
f 82//44 42//44 40//44
f 82//44 40//44 38//44
f 82//44 38//44 36//44
f 69//44 4//44 1//44
f 82//44 36//44 33//44
f 69//44 1//44 5//44
f 82//44 33//44 32//44
f 69//44 5//44 7//44
f 69//44 7//44 9//44
f 72//47 71//47 82//47
f 72//47 82//47 81//47
f 73//37 81//37 80//37
f 73//37 72//37 81//37
f 63//48 80//48 61//48
f 63//48 73//48 80//48
f 76//49 59//49 60//49
f 76//49 60//49 84//49
f 77//50 84//51 83//51
f 77//50 76//50 84//51
f 71//52 83//52 82//52
f 71//52 77//52 83//52
f 78//53 29//53 30//53
f 78//53 30//53 75//53
f 79//54 75//55 74//55
f 79//54 78//54 75//55
f 69//56 74//56 70//56
f 69//56 79//56 74//56
